<svg viewBox="0 0 14 16" xmlns="http://www.w3.org/2000/svg"><path d="m12.2615685 3.14192919c-.0109969-.08004752-.0810704-.12429104-.1389962-.12915015-.0577979-.00485912-1.2812718-.09551997-1.2812718-.09551997s-.84970576-.8435679-.94292406-.93691405c-.09334614-.09334615-.27556296-.0649587-.34627584-.04411565-.01048548.00306891-.18566931.05715854-.47555392.14679642-.28387457-.8167149-.78474701-1.56732027-1.66603698-1.56732027-.02429556 0-.04935841.00102298-.07442121.00242956-.250628-.33144277-.56109989-.47542602-.8292463-.47542602-2.05284811 0-3.03362206 2.56625196-3.34115288 3.8704128-.79766206.2471755-1.36438829.42287086-1.43676352.44563198-.44524836.13963561-.45931422.15370147-.51775147.57324767-.04411565.31763266-1.20915235 9.32745439-1.20915235 9.32745439l9.07823299 1.700946 4.91895864-1.0641462s-1.726776-11.67427898-1.7376451-11.75432651zm-3.68678932-.90366747c-.2279948.07058503-.48719019.15076043-.76812378.23771301.00025578-.05408962.0005115-.10741201.0005115-.16559352 0-.50764963-.07045715-.91632675-.1834955-1.24035299.45407145.05703067.75648745.57363129.95110778 1.1682335zm-1.51438148-1.06759867c.12620909.31635395.20830257.77029756.20830257 1.38292964 0 .0313285-.00025578.05997171-.0005115.08899853-.4995937.15472444-1.042408.32274751-1.58650099.49128207.30548488-1.17897469.87809321-1.74838622 1.37870992-1.96321024zm-.6099468-.57733956c.08861491 0 .17786915.03004979.26328729.08887065-.65789857.30957676-1.36310956 1.08933681-1.66092215 2.64642736-.43527439.1347765-.86070267.26648408-1.25403522.38834557.34883329-1.18766995 1.17718449-3.12364358 2.65167008-3.12364358zm.9600588 5.13736303-.60649425 1.80413819s-.5314337-.28361885-1.18281085-.28361885c-.95494393 0-1.00302359.59933343-1.00302359.75034959 0 .82400356 2.14798447 1.13971819 2.14798447 3.06980975 0 1.5184733-.96312767 2.4963063-2.26179005 2.4963063-1.55836926 0-2.35526408-.9699049-2.35526408-.9699049l.41724451-1.3785821s.81914446.703293 1.51041747.703293c.45164193 0 .6353932-.3556105.6353932-.6154453 0-1.0748873-1.76219634-1.1228391-1.76219634-2.88899943 0-1.48650554 1.06695931-2.92505924 3.22069797-2.92505924.8298857 0 1.23984154.23771299 1.23984154.23771299" fill="#95bf46"/><path d="m12.1225723 3.01277904c-.0577979-.00485912-1.2812718-.09551997-1.2812718-.09551997s-.84970576-.8435679-.94292406-.93691405c-.03490888-.03478104-.08196559-.05255516-.13119606-.06022745l-.68641391 14.04015643 4.91844713-1.0640183s-1.726776-11.67427898-1.7376451-11.75432651c-.0109969-.08004752-.0810704-.12429104-.1389962-.12915015" fill="#5e8e3e"/></svg>